<?xml version="1.0"?>
<svg xmlns="http://www.w3.org/2000/svg" viewBox="0 0 64 64" width="512" height="512"><g id="Mail-2" data-name="Mail"><path d="M57.68,42.9a4,4,0,0,0-1.99.534l-9.751,5.629a3.966,3.966,0,0,0-2.259-1.629l-14.92-4a7,7,0,0,0-3.51-.03L20,44.719V43a1,1,0,0,0-1-1H11a1,1,0,0,0-1,1v1H3a1,1,0,0,0-1,1V59a1,1,0,0,0,1,1h7v1a1,1,0,0,0,1,1h8a1,1,0,0,0,1-1V59.618l1.286.643A7.028,7.028,0,0,0,24.417,61H39.393a7,7,0,0,0,3.5-.938l16.8-9.7A4,4,0,0,0,57.68,42.9ZM4,58V46h6V58Zm14,2H12V44h6ZM58.69,48.634l-16.8,9.7a5,5,0,0,1-2.5.67H24.417a5.036,5.036,0,0,1-2.237-.528L20,57.382v-10.6l5.735-1.434a5,5,0,0,1,2.507.021l14.92,4a2,2,0,1,1-1.036,3.863L30.2,50.034a1,1,0,0,0-.517,1.932l11.925,3.2a4.038,4.038,0,0,0,1.042.138,3.952,3.952,0,0,0,3.965-4.317l10.072-5.815a2.034,2.034,0,0,1,2.726.732A2.009,2.009,0,0,1,58.69,48.634Z"/><path d="M59,10H23a3,3,0,0,0-3,3V37a3,3,0,0,0,3,3H59a3,3,0,0,0,3-3V13A3,3,0,0,0,59,10ZM41.657,26.134a1.017,1.017,0,0,1-1.309,0L23.725,12H58.276ZM35.925,25,22,36.841V13.159Zm1.543,1.313,1.589,1.352a3.017,3.017,0,0,0,3.891,0l1.584-1.348L58.275,38H23.725ZM46.075,25,60,13.159V36.841Z"/></g></svg>
