<?xml version="1.0"?>
<svg xmlns="http://www.w3.org/2000/svg" id="Capa_1" enable-background="new 0 0 509 509" height="512px" viewBox="0 0 509 509" width="512px" class=""><g><link xmlns="" type="text/css" id="dark-mode" rel="stylesheet" class="active-path" style=""/><style xmlns="" type="text/css" id="dark-mode-custom-style" class="active-path"/><path id="XMLID_969_" d="m175.115 316.134c4.879-7.872 7.749-17.108 7.908-26.993h.022v-.866-14.134c0-29.398-23.796-53.316-53.046-53.316s-53.046 23.918-53.046 53.316v14.134.866h.022c.16 9.886 3.03 19.123 7.91 26.995-13.21 10.12-21.575 26.049-21.575 43.502v30.362h133.379v-30.362c0-17.461-8.364-33.386-21.574-43.504zm-45.115-65.31c7.066 0 13.399 3.233 17.631 8.316h-35.262c4.232-5.082 10.565-8.316 17.631-8.316zm23.024 38.317c-.458 12.308-10.606 22.18-23.024 22.18s-22.566-9.872-23.024-22.18zm13.665 70.859h-73.378v-.362c0-10.113 6.206-19.087 15.272-22.85 6.555 2.905 13.798 4.532 21.417 4.532s14.862-1.627 21.416-4.532c9.067 3.762 15.273 12.732 15.273 22.849z" data-original="#000000" class="active-path" fill="#FFFFFF"/><path id="XMLID_992_" d="m60 194h160v-89.334h-160zm30-59.334h100v29.334h-100z" data-original="#000000" class="active-path" fill="#FFFFFF"/><path id="XMLID_998_" d="m234.43 233.479h118.57v30h-118.57z" data-original="#000000" class="active-path" fill="#FFFFFF"/><path id="XMLID_999_" d="m234.43 296h118.57v30h-118.57z" data-original="#000000" class="active-path" fill="#FFFFFF"/><path id="XMLID_1000_" d="m234.43 358.522h118.57v30h-118.57z" data-original="#000000" class="active-path" fill="#FFFFFF"/><path id="XMLID_1003_" d="m410 178.5v-135.5h-410v323.5c0 54.864 44.636 99.5 99.5 99.5h345c35.565 0 64.5-28.935 64.5-64.5v-223zm-380 188v-293.5h350v328.5c0 12.684 3.695 24.514 10.044 34.5h-290.544c-38.322 0-69.5-31.178-69.5-69.5zm449 35c0 19.023-15.477 34.5-34.5 34.5s-34.5-15.477-34.5-34.5v-193h69z" data-original="#000000" class="active-path" fill="#FFFFFF"/></g> </svg>
