<svg id="Capa_1" enable-background="new 0 0 512 512" height="512" viewBox="0 0 512 512" width="512" xmlns="http://www.w3.org/2000/svg"><g><path d="m105.391 242.94c14.535 0 26.359-11.825 26.359-26.359v-30.161c0-14.535-11.825-26.359-26.359-26.359s-26.359 11.825-26.359 26.359v30.161c-.001 14.534 11.824 26.359 26.359 26.359zm-11.36-56.521c0-6.264 5.096-11.359 11.359-11.359s11.359 5.096 11.359 11.359v30.161c0 6.264-5.096 11.359-11.359 11.359s-11.359-5.096-11.359-11.359zm79.078 56.521c14.535 0 26.359-11.825 26.359-26.359v-30.161c0-14.535-11.825-26.359-26.359-26.359s-26.359 11.825-26.359 26.359v30.161c0 14.534 11.825 26.359 26.359 26.359zm-11.359-56.521c0-6.264 5.096-11.359 11.359-11.359s11.359 5.096 11.359 11.359v30.161c0 6.264-5.096 11.359-11.359 11.359s-11.359-5.096-11.359-11.359zm-124.25-98.419h203.5c4.142 0 7.5-3.358 7.5-7.5v-43c0-4.142-3.358-7.5-7.5-7.5h-67.478c-4.142 0-7.5 3.358-7.5 7.5s3.358 7.5 7.5 7.5h59.978v28h-188.5v-28h98.522c4.142 0 7.5-3.358 7.5-7.5s-3.358-7.5-7.5-7.5h-106.022c-4.142 0-7.5 3.358-7.5 7.5v43c0 4.142 3.358 7.5 7.5 7.5zm437-88h-437c-20.678 0-37.5 16.822-37.5 37.5v255c0 20.678 16.822 37.5 37.5 37.5h96.036l7.414 26.92c4.467 16.216 19.334 27.542 36.154 27.542h44.165v120.038c0 4.142 3.358 7.5 7.5 7.5s7.5-3.358 7.5-7.5v-120.038h39.462v120.038c0 4.142 3.358 7.5 7.5 7.5s7.5-3.358 7.5-7.5v-120.038h44.165c16.82 0 31.688-11.326 36.154-27.542l7.414-26.92h96.036c20.678 0 37.5-16.822 37.5-37.5v-255c0-20.678-16.822-37.5-37.5-37.5zm-117.912 352.937c-2.68 9.73-11.6 16.526-21.692 16.526h-157.792c-10.092 0-19.013-6.795-21.692-16.525l-6.317-22.938h213.81zm140.412-60.437c0 12.407-10.093 22.5-22.5 22.5h-437c-12.407 0-22.5-10.093-22.5-22.5v-255c0-12.407 10.093-22.5 22.5-22.5h437c12.407 0 22.5 10.093 22.5 22.5zm-22.5-262.5h-203.5c-4.142 0-7.5 3.358-7.5 7.5v43c0 4.142 3.358 7.5 7.5 7.5h203.5c4.142 0 7.5-3.358 7.5-7.5v-43c0-4.142-3.358-7.5-7.5-7.5zm-7.5 43h-188.5v-28h188.5zm-86.75 113.419v30.161c0 14.535 11.825 26.359 26.359 26.359s26.359-11.825 26.359-26.359v-30.161c0-14.535-11.825-26.359-26.359-26.359s-26.359 11.825-26.359 26.359zm37.719 0v30.161c0 6.264-5.096 11.359-11.359 11.359s-11.359-5.096-11.359-11.359v-30.161c0-6.264 5.096-11.359 11.359-11.359s11.359 5.096 11.359 11.359zm56.531-83.419h-437c-4.142 0-7.5 3.358-7.5 7.5v182c0 4.142 3.358 7.5 7.5 7.5h437c4.142 0 7.5-3.358 7.5-7.5v-37.086c0-4.142-3.358-7.5-7.5-7.5s-7.5 3.358-7.5 7.5v29.586h-203.5v-167h203.5v107.414c0 4.142 3.358 7.5 7.5 7.5s7.5-3.358 7.5-7.5v-114.914c0-4.142-3.358-7.5-7.5-7.5zm-226 182h-203.5v-167h203.5zm64.031-98.581v30.161c0 14.535 11.825 26.359 26.359 26.359s26.359-11.825 26.359-26.359v-30.161c0-14.535-11.825-26.359-26.359-26.359s-26.359 11.825-26.359 26.359zm37.719 0v30.161c0 6.264-5.096 11.359-11.359 11.359s-11.359-5.096-11.359-11.359v-30.161c0-6.264 5.096-11.359 11.359-11.359s11.359 5.096 11.359 11.359z"/></g></svg>