<svg height="512" viewBox="0 0 64 64" width="512" xmlns="http://www.w3.org/2000/svg"><g id="Plan-Calculator-Management-Engineer-File"><path d="m17 38h2v7h-2z"/><path d="m22 4h23v5a3 3 0 0 0 3 3h5v20h2v-21a1 1 0 0 0 -.293-.707l-8-8a1 1 0 0 0 -.707-.293h-24a5 5 0 0 0 -4.842 3.751l1.936.5a3 3 0 0 1 2.906-2.251zm25 5v-3.586l4.586 4.586h-3.586a1 1 0 0 1 -1-1z"/><path d="m59 34h-14a3.009 3.009 0 0 0 -3 3v22a3.009 3.009 0 0 0 3 3h14a3.009 3.009 0 0 0 3-3v-22a3.009 3.009 0 0 0 -3-3zm1 25a1 1 0 0 1 -1 1h-14a1 1 0 0 1 -1-1v-22a1 1 0 0 1 1-1h14a1 1 0 0 1 1 1z"/><path d="m57 46h-10a1 1 0 0 0 -1 1v10a1 1 0 0 0 1 1h10a1 1 0 0 0 1-1v-10a1 1 0 0 0 -1-1zm-1 5h-3v-3h3zm-5-3v3h-3v-3zm-3 5h3v3h-3zm5 3v-3h3v3z"/><path d="m57 38h-10a1 1 0 0 0 -1 1v4a1 1 0 0 0 1 1h10a1 1 0 0 0 1-1v-4a1 1 0 0 0 -1-1zm-1 4h-8v-2h8z"/><path d="m2.858 24.99 2.682.383a10.96 10.96 0 0 0 .678 1.639l-1.624 2.166a1 1 0 0 0 .093 1.307l2.828 2.828a1 1 0 0 0 1.307.093l2.166-1.624a10.96 10.96 0 0 0 1.639.678l.383 2.682a1 1 0 0 0 .99.858h4a1 1 0 0 0 .99-.858l.383-2.682a10.96 10.96 0 0 0 1.639-.678l2.166 1.624a1 1 0 0 0 1.307-.093l2.828-2.828a1 1 0 0 0 .093-1.307l-1.624-2.166a10.96 10.96 0 0 0 .678-1.639l2.682-.383a1 1 0 0 0 .858-.99v-4a1 1 0 0 0 -.858-.99l-2.682-.383a10.96 10.96 0 0 0 -.678-1.639l1.624-2.166a1 1 0 0 0 -.093-1.307l-2.828-2.828a1 1 0 0 0 -1.307-.093l-2.166 1.624a10.96 10.96 0 0 0 -1.639-.678l-.383-2.682a1 1 0 0 0 -.99-.858h-4a1 1 0 0 0 -.99.858l-.383 2.682a10.96 10.96 0 0 0 -1.639.678l-2.166-1.624a1 1 0 0 0 -1.307.093l-2.828 2.828a1 1 0 0 0 -.093 1.307l1.624 2.166a10.96 10.96 0 0 0 -.678 1.639l-2.682.383a1 1 0 0 0 -.858.99v4a1 1 0 0 0 .858.99zm1.142-4.123 2.463-.352a1 1 0 0 0 .828-.743 8.892 8.892 0 0 1 .975-2.356 1 1 0 0 0 -.06-1.111l-1.492-1.99 1.6-1.6 1.99 1.492a1 1 0 0 0 1.111.06 8.892 8.892 0 0 1 2.356-.975 1 1 0 0 0 .743-.828l.353-2.464h2.266l.352 2.463a1 1 0 0 0 .743.828 8.892 8.892 0 0 1 2.356.975 1 1 0 0 0 1.111-.06l1.99-1.492 1.6 1.6-1.492 1.99a1 1 0 0 0 -.06 1.111 8.892 8.892 0 0 1 .975 2.356 1 1 0 0 0 .828.743l2.464.353v2.266l-2.463.352a1 1 0 0 0 -.828.743 8.892 8.892 0 0 1 -.975 2.356 1 1 0 0 0 .06 1.111l1.492 1.99-1.6 1.6-1.986-1.491a1 1 0 0 0 -1.111-.06 8.892 8.892 0 0 1 -2.356.975 1 1 0 0 0 -.743.828l-.357 2.463h-2.266l-.352-2.463a1 1 0 0 0 -.743-.828 8.892 8.892 0 0 1 -2.356-.975 1 1 0 0 0 -1.111.06l-1.99 1.492-1.6-1.6 1.491-1.986a1 1 0 0 0 .06-1.111 8.892 8.892 0 0 1 -.975-2.356 1 1 0 0 0 -.828-.743l-2.463-.357z"/><path d="m16 28a6 6 0 1 0 -6-6 6.006 6.006 0 0 0 6 6zm0-10a4 4 0 1 1 -4 4 4 4 0 0 1 4-4z"/><path d="m39.406 51.086-9-4a1 1 0 0 0 -.406-.086h-23a5 5 0 0 0 0 10h23a1 1 0 0 0 .406-.086l9-4a1 1 0 0 0 0-1.828zm-10.406-.086h-15v-2h15zm-17 4h-2v-6h2zm2-2h15v2h-15zm17-3.461 2 .889v3.144l-2 .889zm-27 2.461a3 3 0 0 1 3-3h1v6h-1a3 3 0 0 1 -3-3zm31 .683v-1.366l1.538.683z"/><path d="m12 38h2v2h-2z"/><path d="m12 42h2v2h-2z"/><path d="m33 16h2v2h-2z"/><path d="m37 16h12v2h-12z"/><path d="m33 20h16v2h-16z"/><path d="m33 24h16v2h-16z"/><path d="m23 36h14v2h-14z"/><path d="m23 40h14v2h-14z"/></g></svg>