<svg id="Layer_5" enable-background="new 0 0 64 64" height="512" viewBox="0 0 64 64" width="512" xmlns="http://www.w3.org/2000/svg"><g><path d="m20.117 34h-.234c-1.59 0-2.883 1.293-2.883 2.883 0 .12.008.24.022.357l.861 6.893c.135 1.064 1.045 1.867 2.117 1.867s1.982-.803 2.116-1.868l.861-6.89c.015-.119.023-.239.023-.359 0-1.59-1.293-2.883-2.883-2.883zm.876 2.992-.861 6.891c-.018.133-.246.132-.264.001l-.861-6.894c-.005-.035-.007-.071-.007-.107 0-.487.396-.883.883-.883h.234c.487 0 .883.396.883.883 0 .036-.002.072-.007.109z"/><path d="m20 48c-1.654 0-3 1.346-3 3s1.346 3 3 3 3-1.346 3-3-1.346-3-3-3zm0 4c-.552 0-1-.448-1-1s.448-1 1-1 1 .448 1 1-.448 1-1 1z"/><path d="m20 31c-7.168 0-13 5.832-13 13s5.832 13 13 13 13-5.832 13-13-5.832-13-13-13zm0 24c-6.065 0-11-4.935-11-11s4.935-11 11-11 11 4.935 11 11-4.935 11-11 11z"/><path d="m39 39c0 1.654 1.346 3 3 3s3-1.346 3-3-1.346-3-3-3v2c.552 0 1 .448 1 1s-.448 1-1 1-1-.448-1-1v-12c0-1.103.897-2 2-2s2 .897 2 2h2c0-1.103.897-2 2-2s2 .897 2 2h2v-2c0-7.168-5.832-13-13-13s-13 5.832-13 13v2h2c0-1.103.897-2 2-2s2 .897 2 2h2c0-1.103.897-2 2-2s2 .897 2 2zm-2-16c-1.201 0-2.266.542-3 1.382-.734-.84-1.799-1.382-3-1.382-.686 0-1.331.173-1.896.479.745-5.348 5.347-9.479 10.896-9.479s10.151 4.131 10.896 9.479c-.565-.306-1.21-.479-1.896-.479-1.201 0-2.266.542-3 1.382-.734-.84-1.799-1.382-3-1.382s-2.266.542-3 1.382c-.734-.84-1.799-1.382-3-1.382z"/><path d="m59.99 7.858-.123-.858h-5.382c-5.205 0-10.097-2.026-13.778-5.707l-.707-.707-.707.707c-3.681 3.681-8.573 5.707-13.778 5.707h-5.382l-.123.858c-.013.095-1.321 9.263-2.202 17.142h-1.527l-.894 2.653c-1.286.361-2.521.874-3.685 1.526l-2.509-1.244-5.259 5.259 1.244 2.509c-.652 1.163-1.165 2.398-1.526 3.685l-2.652.893v7.438l2.653.894c.361 1.286.874 2.521 1.526 3.685l-1.244 2.509 5.259 5.259 2.509-1.245c1.165.654 2.4 1.166 3.685 1.527l.893 2.652h7.438l.894-2.653c1.284-.361 2.52-.873 3.685-1.527l2.509 1.245 5.259-5.259-1.244-2.509c.138-.246.244-.507.369-.759.175.103.351.207.509.299 1.301.761 2.788 1.163 4.3 1.163s2.999-.402 4.303-1.163c6.982-4.079 18.697-11.691 18.697-16.837 0-6.002-2.887-26.281-3.01-27.142zm-29.583 49.777-2.196-1.09-.47.284c-1.289.779-2.684 1.357-4.145 1.718l-.533.131-.782 2.322h-4.563l-.782-2.322-.533-.131c-1.461-.36-2.855-.938-4.145-1.718l-.47-.284-2.196 1.09-3.228-3.228 1.09-2.196-.284-.47c-.779-1.287-1.356-2.682-1.718-4.145l-.131-.533-2.321-.782v-4.563l2.322-.782.131-.533c.361-1.463.938-2.857 1.718-4.145l.284-.47-1.09-2.196 3.228-3.228 2.196 1.09.47-.284c1.287-.779 2.682-1.356 4.145-1.718l.533-.131.782-2.321h4.563l.782 2.322.533.131c1.463.361 2.857.938 4.145 1.718l.47.284 2.196-1.09 3.228 3.228-1.09 2.196.284.47c.779 1.287 1.356 2.682 1.718 4.145l.131.533 2.321.782v4.563l-2.322.782-.131.533c-.361 1.463-.938 2.857-1.718 4.145l-.284.47 1.09 2.196zm5.94-18.247c-.361-1.286-.874-2.521-1.526-3.685l1.244-2.509-5.259-5.259-2.509 1.244c-1.163-.652-2.398-1.165-3.685-1.526l-.795-2.362c.515-4.564 1.14-9.347 1.538-12.292h.159c5.24.001 10.232-1.556 14.486-4.508 4.254 2.952 9.246 4.509 14.485 4.509h.159c.663 4.918 2.273 17.264 2.352 21.685-.63 1.341-5.059 5.743-15.721 11.972-.683.399-1.55.422-2.275.114v-6.489zm6.947 10.722c-1.996 1.164-4.593 1.164-6.587 0-.225-.131-.471-.277-.73-.43.126-.355.268-.704.37-1.068l1.119-.377.249.148c.691.404 1.481.617 2.285.617s1.594-.214 2.285-.617c10.483-6.124 15.987-11.138 16.664-13.204l.051-.156-.001-.164c-.037-4.638-1.915-18.772-2.489-22.994l-.118-.865h-1.906c-5.055 0-9.858-1.571-13.893-4.543l-.593-.437-.593.438c-4.034 2.971-8.838 4.542-13.892 4.542h-1.906l-.118.865c-.381 2.798-1.084 8.091-1.654 13.135h-2.015c.719-6.391 1.707-13.566 2.048-16h3.646c5.411 0 10.516-1.987 14.484-5.616 3.968 3.629 9.073 5.616 14.485 5.616h3.646c.559 4.002 2.869 20.823 2.869 26 0 2.896-6.95 8.826-17.706 15.11z"/></g></svg>