<?xml version="1.0" encoding="iso-8859-1"?>
<!-- Generator: Adobe Illustrator 19.0.0, SVG Export Plug-In . SVG Version: 6.00 Build 0)  -->
<svg version="1.1" id="Layer_1" xmlns="http://www.w3.org/2000/svg" xmlns:xlink="http://www.w3.org/1999/xlink" x="0px" y="0px"
	 viewBox="0 0 514.038 514.038" style="enable-background:new 0 0 514.038 514.038;" xml:space="preserve">
<g>
	<g>
		<path d="M474.358,49.46c-25.698-25.864-60.673-40.375-97.133-40.3c-36.387-0.06-71.277,14.48-96.853,40.363L31.711,328.392
			c-40.917,39.041-42.438,103.859-3.397,144.776s103.859,42.438,144.776,3.397c1.261-1.203,2.49-2.438,3.688-3.703l248.747-278.955
			c27.181-26.128,28.034-69.344,1.906-96.525c-26.128-27.181-69.344-28.034-96.525-1.906c-0.822,0.79-1.624,1.601-2.405,2.431
			L145.887,311.24c-2.918,3.384-2.732,8.445,0.427,11.605l24.149,24.149c1.693,1.684,4.014,2.582,6.4,2.475
			c2.375-0.097,4.601-1.179,6.144-2.987l182.187-212.48c6.763-6.574,17.575-6.422,24.149,0.341
			c6.574,6.763,6.422,17.575-0.341,24.149L140.34,437.021c-20.1,19.912-52.536,19.759-72.448-0.341
			c-19.912-20.1-19.759-52.536,0.341-72.448L316.895,85.363c32.07-34.534,86.064-36.53,120.597-4.46s36.53,86.064,4.46,120.597
			c-1.596,1.718-3.261,3.37-4.993,4.951L248.543,425.416c-2.85,3.449-2.552,8.514,0.683,11.605l23.893,24.405
			c3.335,3.33,8.738,3.327,12.068-0.008c0.135-0.135,0.265-0.275,0.391-0.418l188.16-218.453
			C527.228,189.399,527.506,102.951,474.358,49.46z"/>
	</g>
</g>
<g>
</g>
<g>
</g>
<g>
</g>
<g>
</g>
<g>
</g>
<g>
</g>
<g>
</g>
<g>
</g>
<g>
</g>
<g>
</g>
<g>
</g>
<g>
</g>
<g>
</g>
<g>
</g>
<g>
</g>
</svg>
