<svg xmlns="http://www.w3.org/2000/svg" viewBox="0 0 476 476" width="476" height="476">
	<style>
		tspan { white-space:pre }
		.shp0 { fill: #000000 } 
	</style>
	<g id="Layer">
		<path id="Layer" fill-rule="evenodd" class="shp0" d="M33.18 209.56C31.46 203.28 30.61 196.72 30.61 189.86C30.61 175.21 34.23 161.5 41.46 148.75C40.89 144.75 40.6 140.66 40.6 136.47C40.6 117.25 46.32 100.31 57.74 85.65L57.74 84.23C57.55 58.15 65.68 37.6 82.15 22.56C98.61 7.52 120.17 0 146.81 0L178.79 0C198.78 0 217.81 2.09 235.89 6.28C253.98 10.47 275.2 16.75 299.56 25.12C321.64 32.74 334.77 36.54 338.96 36.54L421.18 36.54C431.27 36.54 439.88 40.11 447.02 47.25C454.15 54.39 457.72 63 457.72 73.08L457.72 255.81C457.72 265.9 454.16 274.51 447.02 281.65C439.88 288.79 431.27 292.35 421.18 292.35L342.95 292.35C336.1 296.93 323.06 311.68 303.84 336.61C292.61 351.27 282.42 363.35 273.29 372.87C269.68 376.87 266.72 382.96 264.44 391.15C262.16 399.33 260.49 407.37 259.44 415.27C258.39 423.17 255.97 431.79 252.16 441.11C248.35 450.44 243.22 458.25 236.75 464.53C229.32 471.57 220.76 475.09 211.05 475.09C195.06 475.09 180.69 472 167.94 465.82C155.18 459.63 145.47 449.97 138.81 436.84C132.15 423.89 128.81 406.19 128.81 383.73C128.81 366.03 133.38 347.76 142.52 328.91L92.27 328.91C72.47 328.91 55.35 321.68 40.88 307.21C26.41 292.75 19.19 275.72 19.19 256.11C19.19 239.16 23.85 223.65 33.18 209.56ZM390.06 104.22C393.67 107.83 397.96 109.64 402.9 109.64C407.86 109.64 412.14 107.84 415.75 104.22C419.37 100.6 421.18 96.32 421.18 91.37C421.18 86.42 419.37 82.14 415.75 78.52C412.13 74.9 407.86 73.1 402.9 73.1C397.96 73.1 393.67 74.9 390.06 78.52C386.44 82.14 384.63 86.42 384.63 91.37C384.63 96.32 386.44 100.6 390.06 104.22ZM66.87 281.38C74.29 288.71 82.75 292.37 92.28 292.37L192.77 292.37C192.77 303.41 188.21 318.59 179.08 337.9C169.94 357.23 165.37 372.5 165.37 383.73C165.37 402.38 168.41 416.18 174.5 425.13C180.59 434.08 192.77 438.55 211.05 438.55C216 433.6 219.62 425.5 221.9 414.27C224.18 403.05 227.08 391.11 230.61 378.44C234.12 365.79 239.79 355.37 247.59 347.18C251.77 342.81 259.11 334.14 269.57 321.2C270.33 320.25 272.52 317.39 276.14 312.64C279.75 307.88 282.75 303.98 285.13 300.93C287.51 297.89 290.79 293.84 294.98 288.8C299.17 283.75 302.98 279.56 306.4 276.23C309.83 272.9 313.49 269.52 317.4 266.09C321.3 262.67 325.11 260.1 328.82 258.39C332.53 256.68 335.91 255.82 338.95 255.82L348.09 255.82L348.09 73.09L338.95 73.09C336.48 73.09 333.48 72.81 329.96 72.24C326.44 71.67 323.3 71.05 320.54 70.38C317.78 69.71 314.16 68.67 309.69 67.24C305.21 65.81 301.89 64.72 299.7 63.96C297.51 63.19 294.13 62.01 289.56 60.39C284.99 58.77 282.23 57.77 281.28 57.39C241.12 43.5 208.57 36.55 183.63 36.55L147.09 36.55C130.52 36.55 117.58 40.45 108.26 48.25C98.93 56.06 94.27 68.05 94.27 84.23C94.27 89.18 94.75 94.51 95.69 100.22C89.99 103.26 85.46 108.26 82.13 115.2C78.8 122.15 77.14 129.15 77.14 136.19C77.14 143.23 78.85 149.8 82.28 155.89C72.19 165.41 67.15 176.73 67.15 189.86C67.15 194.62 68.1 199.9 70 205.71C71.9 211.52 74.29 216.04 77.14 219.27C71.05 219.46 65.96 223.94 61.86 232.69C57.77 241.45 55.72 249.16 55.72 255.82C55.72 265.52 59.44 274.04 66.87 281.38Z" />
	</g>
	<g id="Layer">
	</g>
	<g id="Layer">
	</g>
	<g id="Layer">
	</g>
	<g id="Layer">
	</g>
	<g id="Layer">
	</g>
	<g id="Layer">
	</g>
	<g id="Layer">
	</g>
	<g id="Layer">
	</g>
	<g id="Layer">
	</g>
	<g id="Layer">
	</g>
	<g id="Layer">
	</g>
	<g id="Layer">
	</g>
	<g id="Layer">
	</g>
	<g id="Layer">
	</g>
	<g id="Layer">
	</g>
</svg>